:version 1.10
:name ASF
:units
  mass 1
  length 1
  angle deg
:documentation
  ASF file generated by Kaydara
:root
  axis xyz
  order  tx ty tz rx ry rz
  position 0 0 0
  orientation 0 0 0
:bonedata
  begin
    id 1
    name RightUpLegDummy
    direction -1 2.30186e-007 8.31532e-007
    length 4.46685
    axis 0 0 0 xyz
  end
  begin
    id 2
    name RightUpLeg
    direction -2.30187e-007 -1 1.24343e-010
    length 16.4045
    axis -3.49089 -0.000906625 0.000286804 xyz
    dof rx ry rz
  end
  begin
    id 3
    name RightLeg
    direction -2.30181e-007 -1 -4.17157e-009
    length 17.5097
    axis 3.68512 0.0193738 -0.131023 xyz
    dof rx ry rz
  end
  begin
    id 4
    name RightFoot
    direction 8.31421e-007 -4.51202e-011 1
    length 6.49508
    axis 4.81691e-005 -0.120479 -0.188788 xyz
    dof rx ry rz
  end
  begin
    id 5
    name RightToes
    direction 0.00124746 -0.014064 0.9999
    length 3.85082
    axis 0.000481921 0.542163 -0.142578 xyz
    dof rx ry rz
  end
  begin
    id 6
    name SpineDummy
    direction 0.0717043 0.9409 -0.331007
    length 10.0032
    axis 0 0 0 xyz
  end
  begin
    id 7
    name Spine
    direction 2.30186e-007 1 4.58806e-011
    length 9.84055
    axis -0.001389 0.000121418 2.40972e-006 xyz
    dof rx ry rz
  end
  begin
    id 8
    name Spine1
    direction 0 0 0
    length 0
    axis -0.001389 0.000121451 1.30017e-006 xyz
    dof rx ry rz
  end
  begin
    id 9
    name HEadDummy
    direction -0.00347485 0.950688 -0.310128
    length 8.00997
    axis -0.001389 0.000121451 1.30017e-006 xyz
  end
  begin
    id 10
    name HEad
    direction -0.0222688 0.980941 0.193023
    length 5.12695
    axis -0.001389 0.000121451 1.30017e-006 xyz
    dof rx ry rz
  end
  begin
    id 11
    name LeftShoulder1Dummy
    direction 0.988871 0.146793 -0.0242004
    length 3.5792
    axis -0.001389 0.000121451 1.30017e-006 xyz
  end
  begin
    id 12
    name LeftShoulder1
    direction 0.993832 0.108932 0.020779
    length 4.16823
    axis -0.001389 0.000121451 1.30017e-006 xyz
    dof rx ry rz
  end
  begin
    id 13
    name LeftArm
    direction 1 3.44807e-006 -8.31404e-007
    length 9.91437
    axis -23.1894 0.134784 0.967509 xyz
    dof rx ry rz
  end
  begin
    id 14
    name LeftForeArm
    direction 1 3.44842e-006 -8.31581e-007
    length 9.08575
    axis -9.91835 -0.06569 -0.177793 xyz
    dof rx ry rz
  end
  begin
    id 15
    name LeftHand
    direction 0.992938 -0.0411636 0.11126
    length 5.32135
    axis -0.00960232 -0.00340091 0.185173 xyz
    dof rx ry rz
  end
  begin
    id 16
    name RightShoulderDummy
    direction -0.988871 0.146793 -0.0241962
    length 3.5792
    axis -0.001389 0.000121451 1.30017e-006 xyz
  end
  begin
    id 17
    name RightShoulder
    direction -0.993832 0.108933 0.0207785
    length 4.16823
    axis 0.215806 0.000203643 -0.0068026 xyz
    dof rx ry rz
  end
  begin
    id 18
    name RightArm
    direction -1 3.90912e-006 8.31284e-007
    length 9.91437
    axis -23.2009 -0.134239 -0.964101 xyz
    dof rx ry rz
  end
  begin
    id 19
    name RightForeArm
    direction -1 3.90882e-006 8.31502e-007
    length 9.08575
    axis -9.92322 0.0658061 0.178867 xyz
    dof rx ry rz
  end
  begin
    id 20
    name RightHand
    direction -0.992843 -0.0414603 0.112003
    length 5.28593
    axis -0.00960638 0.00330671 -0.185228 xyz
    dof rx ry rz
  end
  begin
    id 21
    name LeftUpLegDummy
    direction 1 -2.30186e-007 -8.31532e-007
    length 4.46685
    axis 0 0 0 xyz
  end
  begin
    id 22
    name LeftUpLeg
    direction -2.30187e-007 -1 6.00931e-010
    length 16.4045
    axis -3.48766 0.00143442 -0.000524262 xyz
    dof rx ry rz
  end
  begin
    id 23
    name LeftLeg
    direction -2.30187e-007 -1 1.6669e-009
    length 17.5097
    axis 3.68178 -0.00654042 -0.000285133 xyz
    dof rx ry rz
  end
  begin
    id 24
    name LeftFoot
    direction 8.31532e-007 -4.54478e-011 1
    length 6.49508
    axis 1.87233e-006 4.66016e-005 -8.6538e-006 xyz
    dof rx ry rz
  end
  begin
    id 25
    name LeftToes
    direction 0.00818058 -0.00485161 0.999955
    length 3.85048
    axis 1.06247e-005 4.65869e-005 -8.65513e-006 xyz
    dof rx ry rz
  end
:hierarchy
  begin
    root RightUpLegDummy SpineDummy LeftUpLegDummy
    RightUpLegDummy RightUpLeg
    RightUpLeg RightLeg
    RightLeg RightFoot
    RightFoot RightToes
    SpineDummy Spine
    Spine Spine1
    Spine1 HEadDummy LeftShoulder1Dummy RightShoulderDummy
    HEadDummy HEad
    LeftShoulder1Dummy LeftShoulder1
    LeftShoulder1 LeftArm
    LeftArm LeftForeArm
    LeftForeArm LeftHand
    RightShoulderDummy RightShoulder
    RightShoulder RightArm
    RightArm RightForeArm
    RightForeArm RightHand
    LeftUpLegDummy LeftUpLeg
    LeftUpLeg LeftLeg
    LeftLeg LeftFoot
    LeftFoot LeftToes
  end

:SAMPLES-PER-SECOND 30
:FULLY-SPECIFIED
:DEGREES
96
root  -61.8475 29.7865 0.357809 5.60406 77.4331 -15.4122
RightUpLeg  -47.6973 -1.30637 -20.5287
RightLeg  40.912 5.83489 4.39423
RightFoot  2.09766 -0.0173291 1.32364
RightToes  -53.0096 -0.329827 -0.376235
Spine  17.1987 -0.364704 -1.92515
Spine1  27.8076 -2.18657 0.117988
HEad  9.33793 5.36106 2.61274
LeftShoulder1  0 -2.42657e-020 -4.95415e-022
LeftArm  -9.82215 -37.1834 -83.7855
LeftForeArm  63.0876 -28.9283 -5.53122
LeftHand  0.0510351 -11.3236 -0.885267
RightShoulder  0 2.42657e-020 1.07489e-018
RightArm  -25.4453 25.1438 94.5103
RightForeArm  27.0976 28.4008 5.46656
RightHand  -0.370071 22.9145 -1.45616
LeftUpLeg  -56.4948 8.17295 13.6156
LeftLeg  56.294 -10.0549 -12.8776
LeftFoot  -4.95023 -0.00866483 -0.200464
LeftToes  -41.8869 8.63562e-007 1.17448e-007
97
root  -61.905 29.4045 1.39101 10.0297 78.732 -10.3848
RightUpLeg  -49.1606 -0.215878 -21.2551
RightLeg  45.2449 5.89149 5.16854
RightFoot  0.472501 -0.00362423 1.25463
RightToes  -58.931 -0.384482 -0.39537
Spine  17.7785 -0.646623 -1.49084
Spine1  28.4002 -2.71786 0.736599
HEad  9.53214 5.67758 0.87707
LeftShoulder1  0 -2.42657e-020 -4.95415e-022
LeftArm  -8.17861 -39.4281 -86.1452
LeftForeArm  61.8738 -21.3718 -3.89995
LeftHand  1.0255 -10.8643 -11.1296
RightShoulder  0 2.42657e-020 1.07489e-018
RightArm  -29.512 28.8492 94.8658
RightForeArm  26.1668 23.8117 4.45763
RightHand  0.133597 22.2547 1.04953
LeftUpLeg  -56.3102 8.33073 14.1814
LeftLeg  56.7201 -10.8203 -14.0168
LeftFoot  -4.89433 -0.0120168 -0.281188
LeftToes  -44.5647 8.63562e-007 1.17448e-007
98
root  -62.0628 29.2115 2.51964 14.7738 80.0289 -5.18832
RightUpLeg  -50.0371 -1.8988 -19.6446
RightLeg  48.8952 5.21836 5.19401
RightFoot  -4.05433 0.0151027 0.804369
RightToes  -56.6944 -0.363609 -0.388807
Spine  17.8654 -0.310578 -0.831979
Spine1  28.4976 -1.32681 0.576607
HEad  9.59352 5.89104 -1.01086
LeftShoulder1  0 -2.42657e-020 -4.95415e-022
LeftArm  -9.31793 -37.9543 -87.9623
LeftForeArm  63.4073 -18.4509 -3.31377
LeftHand  1.03769 -11.6144 -10.5527
RightShoulder  0 2.42657e-020 1.07489e-018
RightArm  -36.9214 31.85 93.9028
RightForeArm  26.8006 19.0871 3.49307
RightHand  0.642187 21.7568 3.71178
LeftUpLeg  -55.553 8.16207 15.1174
LeftLeg  55.4974 -11.7817 -14.5621
LeftFoot  -3.88304 -0.0178697 -0.527153
LeftToes  -45.8482 8.63562e-007 1.17448e-007
99
root  -62.3215 29.213 3.67256 18.7973 81.4923 -0.971467
RightUpLeg  -50.8395 -3.75354 -17.942
RightLeg  51.475 5.92471 6.44442
RightFoot  -6.13068 0.00594856 0.488686
RightToes  -56.5453 -0.362226 -0.386999
Spine  17.678 0.292067 -0.0801263
Spine1  28.3562 0.680871 0.379809
HEad  9.17979 5.78109 -2.36578
LeftShoulder1  0 -2.42657e-020 -4.95415e-022
LeftArm  -12.1153 -34.3469 -88.484
LeftForeArm  63.9051 -19.6333 -3.54569
LeftHand  0.677993 -11.1371 -7.32005
RightShoulder  0 2.42657e-020 1.07489e-018
RightArm  -45.439 33.9718 91.3749
RightForeArm  28.0114 15.1146 2.72575
RightHand  0.692652 20.936 4.11885
LeftUpLeg  -54.5362 6.98815 16.7062
LeftLeg  52.7092 -12.2687 -13.7571
LeftFoot  -1.85507 -0.0183758 -1.13499
LeftToes  -46.9984 8.63562e-007 1.17448e-007
100
root  -62.5915 29.4457 4.78569 23.0474 82.8258 3.3046
RightUpLeg  -51.5328 -7.29766 -15.1148
RightLeg  53.1072 7.45003 8.55811
RightFoot  -6.39257 -0.0109041 0.182307
RightToes  -56.8152 -0.367791 -0.38734
Spine  17.2664 0.930214 0.678673
Spine1  28.0135 2.57714 0.469178
HEad  8.48841 5.38651 -2.99273
LeftShoulder1  0 -2.42657e-020 -4.95415e-022
LeftArm  -14.6158 -30.126 -88.3284
LeftForeArm  59.7224 -21.7158 -3.9751
LeftHand  0.448512 -10.9835 -5.03556
RightShoulder  0 2.42657e-020 1.07489e-018
RightArm  -52.9505 34.5664 87.7084
RightForeArm  29.0693 12.6693 2.26853
RightHand  0.61298 20.2418 3.80419
LeftUpLeg  -52.9584 5.44271 18.3436
LeftLeg  48.3625 -12.258 -11.8644
LeftFoot  1.28882 0.0224828 -1.99872
LeftToes  -47.2734 8.63562e-007 1.17448e-007
101
root  -62.8904 29.8566 5.86432 24.8452 83.9725 4.85695
RightUpLeg  -51.2246 -9.40778 -12.3156
RightLeg  52.0017 8.73914 9.63762
RightFoot  -5.97484 -0.0198634 -0.00306467
RightToes  -57.4492 -0.370624 -0.387963
Spine  16.4921 1.55846 1.46066
Spine1  27.1896 4.19399 0.948692
HEad  8.06924 5.01774 -2.91602
LeftShoulder1  0 -2.42657e-020 -4.95415e-022
LeftArm  -16.797 -25.9765 -88.117
LeftForeArm  54.7462 -22.934 -4.2371
LeftHand  0.435252 -10.6334 -5.04767
RightShoulder  0 2.42657e-020 1.07489e-018
RightArm  -57.77 33.194 83.9994
RightForeArm  28.0743 12.1191 2.1676
RightHand  0.676236 19.3547 4.33548
LeftUpLeg  -51.0095 4.63277 19.6371
LeftLeg  42.8444 -11.253 -9.03682
LeftFoot  5.68193 0.142696 -2.8749
LeftToes  -45.2197 8.63562e-007 1.17448e-007
102
root  -63.1617 30.371 6.78503 30.9331 85.1032 10.5155
RightUpLeg  -50.445 -10.065 -10.5686
RightLeg  49.8215 8.85287 9.05814
RightFoot  -5.31388 -0.0164072 0.0239917
RightToes  -56.1228 -0.358316 -0.387
Spine  15.4557 1.86813 1.94899
Spine1  25.9509 5.08637 1.11621
HEad  7.74402 5.36008 -2.70007
LeftShoulder1  0 -2.42657e-020 -4.95415e-022
LeftArm  -19.2429 -22.0786 -87.4598
LeftForeArm  52.3131 -23.1983 -4.29704
LeftHand  0.526142 -10.7282 -5.97282
RightShoulder  0 2.42657e-020 1.07489e-018
RightArm  -58.5021 30.0717 81.6315
RightForeArm  24.0464 13.4587 2.4167
RightHand  0.956109 18.6664 6.18473
LeftUpLeg  -49.2955 6.42491 18.0322
LeftLeg  37.5871 -10.0092 -6.66768
LeftFoot  9.12644 0.246902 -3.0928
LeftToes  -34.8424 8.63562e-007 1.17448e-007
103
root  -63.3277 30.9017 7.50792 43.5547 85.8068 23.2284
RightUpLeg  -48.8128 -10.1351 -9.88715
RightLeg  47.1408 9.00267 8.40104
RightFoot  -4.46286 -0.0115089 0.0822014
RightToes  -54.8229 -0.34635 -0.382693
Spine  14.5557 1.83474 2.05602
Spine1  24.8504 5.09704 1.00755
HEad  7.40738 6.33103 -2.83052
LeftShoulder1  0 -2.42657e-020 -4.95415e-022
LeftArm  -21.9621 -18.5923 -86.3862
LeftForeArm  52.3461 -22.6609 -4.18506
LeftHand  0.571585 -10.928 -6.34408
RightShoulder  0 2.42657e-020 1.07489e-018
RightArm  -54.4902 26.0666 80.4479
RightForeArm  18.201 15.849 2.8665
RightHand  1.50101 19.0765 9.28865
LeftUpLeg  -47.063 9.65454 14.4703
LeftLeg  34.5222 -13.1456 -7.73722
LeftFoot  8.76965 0.25424 -3.31472
LeftToes  -34.6455 8.63562e-007 1.17448e-007
104
root  -63.4451 31.4088 8.1316 57.1685 86.3746 37.329
RightUpLeg  -46.4704 -9.29255 -9.55998
RightLeg  43.8873 7.79034 6.50831
RightFoot  -3.40778 -0.00342794 0.262367
RightToes  -52.7965 -0.327898 -0.375441
Spine  13.7735 1.62256 2.01641
Spine1  23.8536 4.51598 1.03994
HEad  7.00544 7.3854 -3.01963
LeftShoulder1  0 -2.42657e-020 -4.95415e-022
LeftArm  -24.8347 -15.6036 -85.3341
LeftForeArm  54.1239 -21.5507 -3.95327
LeftHand  0.537106 -11.023 -5.93566
RightShoulder  0 2.42657e-020 1.07489e-018
RightArm  -48.8496 20.9261 79.9784
RightForeArm  8.85465 19.8945 3.64999
RightHand  2.30209 19.7472 13.5442
LeftUpLeg  -44.1535 9.72246 12.4699
LeftLeg  33.0809 -13.1211 -7.29313
LeftFoot  7.1851 0.168471 -2.68286
LeftToes  -33.1853 8.63562e-007 1.17448e-007
